<svg width="55" height="14" viewBox="0 0 55 14" fill="none" xmlns="http://www.w3.org/2000/svg">
<path d="M9.51849 0.94V4.522L8.81649 4.504L8.78049 3.604C7.35249 2.704 5.97849 1.984 4.65849 1.444V6.88H8.02449V7.546H4.65849V12.352L6.58449 12.37V13H0.752492V12.37L1.63449 12.352V1.588L0.752492 1.57V0.94H9.51849ZM10.1218 1.102L12.4258 0.579999V2.632L10.1218 2.974V1.102ZM12.6058 12.424L13.2718 12.478V13H9.40177V12.478L10.0678 12.424L10.0138 6.016L9.32977 6.16L9.14977 5.638L12.4078 4.63L12.6598 5.062L12.6058 12.424ZM19.6885 11.578L17.4925 13.162C16.6045 13.162 15.9565 12.946 15.5485 12.514C15.1525 12.07 14.9545 11.362 14.9545 10.39V5.602H13.7485V5.026C14.2525 4.75 14.7985 4.36 15.3865 3.856C15.9865 3.34 16.5325 2.8 17.0245 2.236L17.6185 2.416L17.5285 4.9H19.6345V5.656L17.4925 5.62V9.76C17.4925 10.336 17.6005 10.756 17.8165 11.02C18.0445 11.284 18.3445 11.416 18.7165 11.416L19.3825 11.038L19.6885 11.578ZM29.1005 0.94V4.522L28.3985 4.504L28.3625 3.604C26.9345 2.704 25.5605 1.984 24.2405 1.444V6.88H27.6065V7.546H24.2405V12.352L26.1665 12.37V13H20.3345V12.37L21.2165 12.352V1.588L20.3345 1.57V0.94H29.1005ZM32.4487 4.63C33.6487 4.63 34.6147 4.984 35.3467 5.692C36.0787 6.4 36.4447 7.408 36.4447 8.716C36.4447 9.28 36.3427 9.862 36.1387 10.462C35.9467 11.062 35.6587 11.59 35.2747 12.046C34.8907 12.418 34.4407 12.718 33.9247 12.946C33.4207 13.162 32.8867 13.27 32.3227 13.27C31.1227 13.27 30.1567 12.916 29.4247 12.208C28.6927 11.5 28.3267 10.492 28.3267 9.184C28.3267 8.632 28.4287 8.056 28.6327 7.456C28.8367 6.856 29.1307 6.328 29.5147 5.872C29.8987 5.5 30.3427 5.2 30.8467 4.972C31.3627 4.744 31.8967 4.63 32.4487 4.63ZM30.9187 8.32C30.9187 9.46 31.1407 10.312 31.5847 10.876C32.0407 11.44 32.7067 11.776 33.5827 11.884C33.6667 11.524 33.7327 11.122 33.7807 10.678C33.8287 10.234 33.8527 9.868 33.8527 9.58C33.8527 8.428 33.6247 7.576 33.1687 7.024C32.7247 6.46 32.0707 6.124 31.2067 6.016C31.1227 6.388 31.0507 6.796 30.9907 7.24C30.9427 7.684 30.9187 8.044 30.9187 8.32ZM41.2729 4.63C42.4729 4.63 43.4389 4.984 44.1709 5.692C44.9029 6.4 45.2689 7.408 45.2689 8.716C45.2689 9.28 45.1669 9.862 44.9629 10.462C44.7709 11.062 44.4829 11.59 44.0989 12.046C43.7149 12.418 43.2649 12.718 42.7489 12.946C42.2449 13.162 41.7109 13.27 41.1469 13.27C39.9469 13.27 38.9809 12.916 38.2489 12.208C37.5169 11.5 37.1509 10.492 37.1509 9.184C37.1509 8.632 37.2529 8.056 37.4569 7.456C37.6609 6.856 37.9549 6.328 38.3389 5.872C38.7229 5.5 39.1669 5.2 39.6709 4.972C40.1869 4.744 40.7209 4.63 41.2729 4.63ZM39.7429 8.32C39.7429 9.46 39.9649 10.312 40.4089 10.876C40.8649 11.44 41.5309 11.776 42.4069 11.884C42.4909 11.524 42.5569 11.122 42.6049 10.678C42.6529 10.234 42.6769 9.868 42.6769 9.58C42.6769 8.428 42.4489 7.576 41.9929 7.024C41.5489 6.46 40.8949 6.124 40.0309 6.016C39.9469 6.388 39.8749 6.796 39.8149 7.24C39.7669 7.684 39.7429 8.044 39.7429 8.32ZM54.8152 11.758L52.1872 13.18C51.8632 12.988 51.6232 12.736 51.4672 12.424C51.3232 12.1 51.2392 11.686 51.2152 11.182L49.4332 13.27C48.7372 13.27 48.1192 13.114 47.5792 12.802C47.0512 12.478 46.6372 12.04 46.3372 11.488C46.0372 10.924 45.8872 10.288 45.8872 9.58C45.8872 8.968 45.9892 8.32 46.1932 7.636C46.3972 6.952 46.6432 6.418 46.9312 6.034C47.1592 5.71 47.5732 5.398 48.1732 5.098C48.7732 4.786 49.2772 4.63 49.6852 4.63C50.0452 4.63 50.5372 4.69 51.1612 4.81L51.1252 1.642L50.4412 1.786L50.2612 1.264L53.5912 0.256L53.8432 0.688L53.7352 10.012C53.7352 10.444 53.7592 10.768 53.8072 10.984C53.8552 11.188 53.9392 11.368 54.0592 11.524L54.5992 11.272L54.8152 11.758ZM48.4792 8.5C48.4792 9.052 48.5692 9.532 48.7492 9.94C48.9292 10.348 49.1632 10.66 49.4512 10.876C49.7512 11.092 50.0692 11.2 50.4052 11.2L51.2152 10.39L51.1792 6.754C50.3992 6.382 49.6492 6.13 48.9292 5.998C48.6292 6.682 48.4792 7.516 48.4792 8.5Z" fill="#FFFDFD"/>
</svg>
